<svg xmlns="http://www.w3.org/2000/svg" xmlns:xlink="http://www.w3.org/1999/xlink" version="1.1" id="3629025158" x="0px" y="0px" width="100%" height="100%" viewBox="0 0 80 75.311" enable-background="new 0 0 80 75.311" xml:space="preserve" preserveAspectRatio="none" class="element svg-element">
<path fill="#08A1EF" d="M80,40.002c0,12.773-6.009,24.122-15.333,31.444c5.267-5.87,8.497-13.604,8.497-22.109  c0-2.878-0.403-5.657-1.097-8.322c-3.851,0.491-9.149,1.083-15.201,1.528l1.632-13.219L47.504,43.065  c-2.456,0.088-4.971,0.137-7.504,0.137c-12.662,0-24.891-1.271-32.072-2.186c-0.688,2.663-1.094,5.442-1.094,8.32  c0,8.504,3.23,16.237,8.495,22.107C6.009,64.121,0,52.775,0,40.002C0,17.91,17.909,0,40,0C62.089,0,80,17.91,80,40.002z   M20.612,48.4c-2.154,0-3.9,1.743-3.9,3.899s1.746,3.9,3.9,3.9c2.156,0,3.902-1.744,3.902-3.9S22.768,48.4,20.612,48.4z   M58.188,48.4c-2.153,0-3.899,1.743-3.899,3.899s1.746,3.9,3.899,3.9c2.154,0,3.9-1.744,3.9-3.9S60.343,48.4,58.188,48.4z   M40,75.311c5.467,0,10.532-1.694,14.72-4.579H25.278C29.463,73.616,34.533,75.311,40,75.311z" style="fill: rgb(26, 207, 207);"></path>
</svg>