<svg xmlns="http://www.w3.org/2000/svg" xmlns:xlink="http://www.w3.org/1999/xlink" version="1.1" x="0px" y="0px" width="100%" height="100%" viewBox="0 0 178.192 178.192" enable-background="new 0 0 178.192 178.192" xml:space="preserve" preserveAspectRatio="none" id="4063463603" class="element svg-element">
<g id="background">
</g>
<g id="objects">
	<path fill="#08A1EF" d="M96.855,168.539c0,0,0.364,0.55,0.91,1.375c0.553,0.816,1.309,1.902,2.096,2.983   c0.786,1.082,1.603,2.159,2.23,2.964c0.632,0.784,1.053,1.307,1.053,1.307c0.657,0.805,1.851,1.18,3.051,0.965   c0,0,0.137-0.024,0.376-0.067c0.24-0.038,0.581-0.106,0.987-0.202c0.812-0.185,1.896-0.432,2.98-0.678   c1.089-0.228,2.147-0.573,2.953-0.784c0.803-0.226,1.338-0.377,1.338-0.377c1.18-0.31,2.045-1.26,2.26-2.269   c0,0,0.559-2.65,0.957-5.274c0.398-2.67,0.648-5.286,0.648-5.286c0.101-1.016,0.78-1.874,1.728-2.324c0,0,0.397-0.179,0.992-0.448   c0.59-0.28,1.4-0.604,2.17-1.012c1.548-0.797,3.097-1.594,3.097-1.594s1.507-0.874,3.014-1.748   c0.758-0.428,1.469-0.936,2.021-1.281c0.549-0.356,0.914-0.594,0.914-0.594c0.889-0.555,1.979-0.664,2.889-0.2   c0,0,2.338,1.201,4.801,2.306c2.424,1.079,4.957,2.039,4.957,2.039c0.965,0.363,2.232,0.147,3.129-0.679   c0,0,0.416-0.369,1.039-0.922c0.613-0.565,1.475-1.271,2.254-2.064c0.791-0.78,1.584-1.56,2.178-2.145   c0.301-0.29,0.541-0.54,0.703-0.722c0.166-0.178,0.26-0.28,0.26-0.28c0.828-0.895,1.156-2.103,0.834-3.089   c0,0-0.213-0.637-0.533-1.592c-0.34-0.963-0.805-2.231-1.291-3.477c-0.486-1.247-0.992-2.469-1.383-3.375   c-0.4-0.904-0.666-1.508-0.666-1.508c-0.428-0.936-0.307-2.049,0.324-2.887c0,0,0.262-0.348,0.654-0.87   c0.367-0.54,0.857-1.261,1.346-1.981c0.498-0.715,0.977-1.442,1.307-2.008c0.34-0.558,0.566-0.929,0.566-0.929   s0.936-1.472,1.742-3.017c0.863-1.515,1.607-3.091,1.607-3.091c0.453-0.945,1.404-1.557,2.416-1.615c0,0,2.609-0.14,5.279-0.427   c2.684-0.263,5.328-0.712,5.328-0.712c1.027-0.165,1.955-1.007,2.375-2.148c0,0,0.676-2.112,1.352-4.226   c0.57-2.144,1.143-4.287,1.143-4.287c0.262-1.188-0.064-2.397-0.842-3.091c0,0-1.984-1.804-4.102-3.474   c-2.094-1.682-4.215-3.208-4.215-3.208c-0.82-0.595-1.291-1.622-1.164-2.663c0,0,0.225-1.728,0.314-3.469   c0.154-1.736,0.16-3.479,0.16-3.479s0.01-0.436,0.023-1.089c0.029-0.653,0.018-1.523-0.016-2.395   c-0.023-0.871-0.047-1.742-0.064-2.395c-0.049-0.652-0.082-1.086-0.082-1.086c-0.08-1.046,0.42-2.049,1.285-2.605   c0,0,0.549-0.364,1.375-0.91c0.816-0.553,1.902-1.309,2.984-2.096c1.08-0.786,2.158-1.604,2.963-2.23   c0.783-0.632,1.307-1.053,1.307-1.053c0.805-0.657,1.18-1.851,0.965-3.051c0,0-0.025-0.138-0.068-0.377   c-0.037-0.24-0.105-0.58-0.201-0.986c-0.186-0.812-0.432-1.896-0.678-2.98c-0.229-1.089-0.574-2.147-0.785-2.954   c-0.225-0.802-0.377-1.337-0.377-1.337c-0.309-1.18-1.258-2.045-2.268-2.259c0,0-2.65-0.559-5.275-0.958   c-2.67-0.398-5.285-0.649-5.285-0.649c-1.016-0.1-1.875-0.779-2.324-1.727c0,0-0.18-0.397-0.449-0.992   c-0.279-0.59-0.604-1.4-1.012-2.17c-0.797-1.549-1.594-3.097-1.594-3.097s-0.873-1.507-1.748-3.014   c-0.428-0.758-0.936-1.469-1.281-2.022c-0.355-0.548-0.594-0.912-0.594-0.912c-0.555-0.891-0.664-1.979-0.199-2.889   c0,0,1.201-2.338,2.305-4.801c1.08-2.425,2.039-4.958,2.039-4.958c0.363-0.966,0.148-2.231-0.678-3.13c0,0-0.369-0.415-0.922-1.038   c-0.566-0.613-1.271-1.475-2.064-2.254c-0.781-0.792-1.561-1.584-2.145-2.179c-0.291-0.3-0.541-0.54-0.723-0.702   c-0.178-0.165-0.279-0.26-0.279-0.26c-0.895-0.828-2.104-1.156-3.09-0.833c0,0-0.637,0.213-1.592,0.532   c-0.963,0.339-2.23,0.805-3.477,1.291s-2.469,0.993-3.375,1.382c-0.904,0.4-1.508,0.667-1.508,0.667   c-0.936,0.428-2.049,0.307-2.887-0.324c0,0-0.348-0.262-0.869-0.654c-0.541-0.367-1.262-0.856-1.982-1.347   c-0.715-0.497-1.442-0.977-2.008-1.306c-0.557-0.34-0.929-0.567-0.929-0.567s-1.472-0.935-3.017-1.741   c-1.514-0.863-3.09-1.606-3.09-1.606c-0.945-0.454-1.557-1.405-1.615-2.417c0,0-0.141-2.609-0.427-5.278   c-0.263-2.686-0.712-5.329-0.712-5.329c-0.165-1.028-1.007-1.955-2.148-2.375c0,0-2.113-0.676-4.227-1.353   c-2.143-0.57-4.287-1.141-4.287-1.141c-1.188-0.263-2.396,0.063-3.09,0.841c0,0-1.805,1.983-3.475,4.103   c-1.681,2.093-3.207,4.215-3.207,4.215c-0.595,0.819-1.623,1.29-2.663,1.163c0,0-1.728-0.225-3.469-0.314   c-1.736-0.154-3.479-0.161-3.479-0.161s-0.436-0.01-1.089-0.023c-0.653-0.027-1.524-0.017-2.395,0.016   c-0.871,0.024-1.742,0.048-2.395,0.066c-0.651,0.048-1.086,0.081-1.086,0.081c-1.045,0.079-2.048-0.42-2.605-1.285   c0,0-0.364-0.55-0.909-1.375c-0.553-0.815-1.309-1.902-2.096-2.983c-0.786-1.082-1.603-2.158-2.23-2.963   c-0.632-0.784-1.053-1.308-1.053-1.308c-0.657-0.804-1.851-1.179-3.051-0.965c0,0-0.137,0.025-0.376,0.067   c-0.241,0.039-0.581,0.106-0.987,0.202c-0.813,0.186-1.897,0.432-2.981,0.678c-1.089,0.228-2.147,0.573-2.953,0.784   c-0.802,0.226-1.337,0.377-1.337,0.377c-1.18,0.31-2.044,1.26-2.259,2.27c0,0-0.559,2.65-0.958,5.274   c-0.399,2.669-0.649,5.285-0.649,5.285c-0.1,1.017-0.78,1.874-1.727,2.324c0,0-0.397,0.18-0.992,0.448   c-0.59,0.28-1.4,0.604-2.17,1.013c-1.549,0.797-3.097,1.594-3.097,1.594s-1.506,0.874-3.013,1.747   c-0.759,0.429-1.469,0.937-2.023,1.282c-0.547,0.355-0.913,0.593-0.913,0.593c-0.89,0.555-1.979,0.664-2.889,0.2   c0,0-2.338-1.2-4.801-2.305c-2.425-1.08-4.958-2.039-4.958-2.039c-0.966-0.364-2.232-0.148-3.129,0.678   c0,0-0.416,0.369-1.039,0.923c-0.612,0.565-1.474,1.27-2.253,2.063c-0.792,0.78-1.585,1.56-2.179,2.145   c-0.3,0.29-0.541,0.54-0.703,0.722c-0.166,0.179-0.26,0.28-0.26,0.28c-0.828,0.896-1.156,2.103-0.833,3.09   c0,0,0.213,0.637,0.532,1.592c0.339,0.962,0.805,2.23,1.292,3.477c0.485,1.246,0.992,2.469,1.381,3.374   c0.4,0.905,0.667,1.508,0.667,1.508c0.427,0.936,0.307,2.05-0.324,2.887c0,0-0.262,0.349-0.654,0.871   c-0.367,0.54-0.857,1.26-1.347,1.98c-0.498,0.716-0.976,1.443-1.305,2.008c-0.341,0.558-0.568,0.93-0.568,0.93   s-0.935,1.472-1.741,3.017c-0.864,1.515-1.607,3.091-1.607,3.091c-0.454,0.944-1.405,1.556-2.417,1.614   c0,0-2.609,0.141-5.279,0.427c-2.685,0.263-5.329,0.712-5.329,0.712c-1.028,0.165-1.955,1.007-2.375,2.148   c0,0-0.676,2.113-1.352,4.226c-0.571,2.144-1.142,4.287-1.142,4.287c-0.262,1.188,0.064,2.397,0.841,3.091   c0,0,1.984,1.805,4.103,3.475c2.093,1.681,4.214,3.207,4.214,3.207c0.82,0.595,1.291,1.623,1.164,2.663   c0,0-0.225,1.729-0.314,3.469c-0.154,1.736-0.161,3.479-0.161,3.479s-0.009,0.436-0.023,1.089   c-0.027,0.653-0.017,1.524,0.016,2.396c0.024,0.87,0.048,1.741,0.065,2.395c0.049,0.651,0.082,1.086,0.082,1.086   c0.079,1.045-0.42,2.048-1.285,2.605c0,0-0.55,0.363-1.375,0.909c-0.816,0.553-1.903,1.309-2.984,2.097   c-1.082,0.785-2.159,1.603-2.963,2.229c-0.784,0.632-1.307,1.054-1.307,1.054c-0.805,0.656-1.18,1.851-0.965,3.051   c0,0,0.024,0.137,0.067,0.376c0.038,0.24,0.106,0.581,0.202,0.986c0.185,0.813,0.431,1.897,0.678,2.981   c0.227,1.089,0.573,2.146,0.784,2.953c0.226,0.803,0.377,1.337,0.377,1.337c0.31,1.181,1.26,2.045,2.269,2.26   c0,0,2.65,0.559,5.274,0.958c2.669,0.398,5.286,0.648,5.286,0.648c1.017,0.101,1.874,0.779,2.324,1.728c0,0,0.18,0.396,0.449,0.991   c0.28,0.59,0.604,1.401,1.012,2.171c0.797,1.548,1.594,3.097,1.594,3.097s0.874,1.506,1.748,3.013   c0.428,0.759,0.936,1.469,1.281,2.022c0.356,0.548,0.593,0.913,0.593,0.913c0.555,0.89,0.664,1.979,0.2,2.889   c0,0-1.201,2.338-2.305,4.801c-1.08,2.425-2.039,4.957-2.039,4.957c-0.364,0.966-0.148,2.232,0.678,3.13   c0,0,0.369,0.416,0.923,1.039c0.565,0.612,1.27,1.475,2.064,2.253c0.78,0.792,1.56,1.585,2.144,2.179   c0.29,0.3,0.54,0.541,0.722,0.703c0.179,0.165,0.28,0.259,0.28,0.259c0.895,0.828,2.103,1.157,3.09,0.834   c0,0,0.636-0.213,1.592-0.532c0.962-0.34,2.231-0.805,3.476-1.292c1.247-0.485,2.469-0.992,3.375-1.382   c0.904-0.4,1.507-0.667,1.507-0.667c0.936-0.427,2.049-0.307,2.887,0.324c0,0,0.348,0.262,0.871,0.654   c0.541,0.367,1.261,0.857,1.981,1.347c0.716,0.498,1.443,0.977,2.008,1.306c0.558,0.341,0.929,0.567,0.929,0.567   s1.472,0.935,3.017,1.742c1.514,0.863,3.09,1.606,3.09,1.606c0.945,0.454,1.556,1.404,1.615,2.416c0,0,0.141,2.609,0.427,5.279   c0.263,2.685,0.712,5.328,0.712,5.328c0.165,1.028,1.007,1.955,2.149,2.376c0,0,2.113,0.676,4.226,1.352   c2.144,0.57,4.287,1.142,4.287,1.142c1.188,0.262,2.397-0.064,3.091-0.841c0,0,1.804-1.984,3.474-4.103   c1.681-2.094,3.207-4.215,3.207-4.215c0.595-0.82,1.623-1.291,2.663-1.164c0,0,1.728,0.225,3.469,0.314   c1.736,0.154,3.479,0.161,3.479,0.161s0.436,0.01,1.088,0.023c0.653,0.028,1.524,0.018,2.395-0.016   c0.871-0.023,1.742-0.048,2.395-0.065c0.652-0.049,1.086-0.081,1.086-0.081C95.296,167.174,96.298,167.674,96.855,168.539z    M87.67,151.382c0,0-0.509-0.011-1.401-0.029c-0.888-0.086-2.165-0.113-3.685-0.296c-3.045-0.29-7.083-1.002-11.002-2.161   c-3.925-1.139-7.709-2.718-10.431-4.116c-1.378-0.666-2.467-1.332-3.262-1.738c-0.761-0.465-1.196-0.731-1.196-0.731   s-0.436-0.265-1.197-0.729c-0.746-0.487-1.804-1.197-3.05-2.081c-2.489-1.773-5.609-4.413-8.416-7.363   c-2.822-2.938-5.281-6.206-6.954-8.771c-0.412-0.646-0.812-1.224-1.134-1.757c-0.312-0.54-0.583-1.011-0.808-1.398   c-0.452-0.772-0.71-1.215-0.71-1.215s-0.232-0.455-0.64-1.253c-0.206-0.397-0.456-0.881-0.742-1.435   c-0.275-0.559-0.546-1.207-0.867-1.902c-1.257-2.792-2.683-6.625-3.634-10.586c-0.97-3.955-1.509-8.006-1.659-11.059   c-0.072-1.525-0.099-2.8-0.108-3.69c0.021-0.892,0.033-1.401,0.033-1.401s0.011-0.51,0.029-1.401   c0.086-0.888,0.113-2.165,0.296-3.685c0.291-3.045,1.003-7.083,2.161-11.003c1.139-3.925,2.718-7.709,4.116-10.43   c0.666-1.378,1.332-2.468,1.738-3.263c0.466-0.761,0.731-1.195,0.731-1.195s0.265-0.436,0.729-1.197   c0.488-0.746,1.198-1.805,2.082-3.05c1.772-2.489,4.412-5.609,7.362-8.416c2.938-2.822,6.207-5.28,8.771-6.953   c0.646-0.412,1.224-0.812,1.757-1.134c0.54-0.312,1.011-0.584,1.398-0.808c0.773-0.452,1.215-0.71,1.215-0.71   s0.456-0.232,1.253-0.64c0.397-0.206,0.88-0.456,1.435-0.742c0.559-0.275,1.207-0.546,1.902-0.867   c2.792-1.257,6.625-2.683,10.586-3.634c3.955-0.97,8.006-1.51,11.058-1.659c1.525-0.072,2.8-0.099,3.691-0.107   c0.892,0.021,1.401,0.032,1.401,0.032s0.51,0.011,1.401,0.029c0.889,0.087,2.165,0.113,3.685,0.296   c3.046,0.29,7.083,1.003,11.003,2.161c3.925,1.139,7.709,2.718,10.43,4.116c1.378,0.666,2.468,1.332,3.263,1.738   c0.76,0.466,1.195,0.731,1.195,0.731s0.436,0.265,1.197,0.729c0.746,0.488,1.805,1.198,3.05,2.082   c2.489,1.772,5.608,4.412,8.415,7.362c2.822,2.938,5.281,6.206,6.953,8.771c0.412,0.646,0.812,1.224,1.135,1.757   c0.312,0.54,0.584,1.011,0.807,1.398c0.453,0.773,0.711,1.215,0.711,1.215s0.232,0.456,0.641,1.253   c0.205,0.398,0.455,0.881,0.74,1.435c0.275,0.56,0.547,1.207,0.869,1.902c1.256,2.792,2.682,6.625,3.633,10.587   c0.971,3.954,1.51,8.006,1.66,11.058c0.07,1.525,0.098,2.8,0.107,3.69c-0.021,0.892-0.033,1.401-0.033,1.401   s-0.012,0.51-0.029,1.401c-0.086,0.889-0.113,2.165-0.297,3.685c-0.289,3.046-1.002,7.084-2.16,11.003   c-1.139,3.925-2.719,7.709-4.117,10.431c-0.666,1.378-1.332,2.467-1.738,3.262c-0.465,0.761-0.73,1.195-0.73,1.195   s-0.266,0.436-0.729,1.198c-0.488,0.745-1.197,1.804-2.082,3.049c-1.773,2.489-4.412,5.609-7.363,8.416   c-2.938,2.822-6.205,5.281-8.77,6.953c-0.646,0.412-1.224,0.812-1.757,1.134c-0.54,0.312-1.011,0.584-1.398,0.808   c-0.773,0.452-1.216,0.71-1.216,0.71s-0.455,0.233-1.252,0.641c-0.398,0.205-0.881,0.455-1.436,0.741   c-0.559,0.275-1.207,0.547-1.902,0.867c-2.791,1.258-6.625,2.684-10.586,3.634c-3.955,0.971-8.006,1.51-11.058,1.66   c-1.525,0.072-2.8,0.099-3.691,0.107C88.18,151.394,87.67,151.382,87.67,151.382z" style="fill: rgb(16, 197, 197);"></path>
</g>
</svg>