<svg xmlns="http://www.w3.org/2000/svg" xmlns:xlink="http://www.w3.org/1999/xlink" version="1.1" id="4131741527" x="0px" y="0px" width="100%" height="100%" viewBox="0 0 80 80" enable-background="new 0 0 80 80" xml:space="preserve" preserveAspectRatio="none" class="element svg-element">
<path fill="#08A1EF" d="M80,45.734c0,0.545-0.145,1.058-0.354,1.552c-0.886-2.043-3.418-3.545-6.427-3.545H48.253  c-3.729,0-6.782,2.295-6.782,5.097c0,2.805,3.054,5.097,6.782,5.097h24.966c1.231,0,2.375-0.27,3.373-0.704  c1.116,0.912,1.821,2.117,1.821,3.45c0,0.637-0.175,1.243-0.462,1.806c-0.983-1.913-3.436-3.287-6.317-3.287H48.253  c-3.729,0-6.782,2.296-6.782,5.1c0,2.802,3.054,5.095,6.782,5.095h23.381c1.164,0,2.248-0.243,3.208-0.641  c0.743,0.824,1.182,1.807,1.182,2.867c0,0.737-0.217,1.431-0.596,2.064c-1.061-1.777-3.433-3.027-6.181-3.027H52.222  c-3.729,0-6.776,2.293-6.776,5.092c0,0.574,0.151,1.119,0.391,1.638c-12.018,0.77-25.766-2.067-31.318-3.374v6.833H0V29.692h14.518  v1.555h1.641h4.712c2.586,0,6.184-2.1,7.987-4.665c1.804-2.564,4.916-4.664,6.915-4.664c1.996,0,3.625-3.051,3.625-6.779l0.012-3.21  h3.068c1.431,0,2.592-1.158,2.592-2.595c0-1.43-1.161-2.588-2.592-2.588h-2.736c0.812-2.517,3.054-4.016,5.707-3.485  c3.323,0.663,6.045,4.255,6.045,7.984v19.049c0.938-0.373,1.983-0.601,3.109-0.601h17.031c3.729,0,6.779,2.295,6.779,5.1  c0,0.45-0.104,0.876-0.252,1.292c-0.772-2.174-3.394-3.797-6.527-3.797H54.603c-3.726,0-6.776,2.292-6.776,5.1  c0,2.799,3.051,5.091,6.776,5.091h17.031c1.732,0,3.303-0.506,4.505-1.32C78.413,41.982,80,43.715,80,45.734z" style="fill: rgb(255, 255, 255);"></path>
</svg>