<svg xmlns="http://www.w3.org/2000/svg" xmlns:xlink="http://www.w3.org/1999/xlink" version="1.1" id="482108345" x="0px" y="0px" width="100%" height="100%" viewBox="0 0 88.5 134.857" enable-background="new 0 0 88.5 134.857" xml:space="preserve" preserveAspectRatio="none" class="element svg-element">
<path fill="#08A1EF" d="M82.179,134.857H6.321c-3.492,0-6.321-2.83-6.321-6.321V6.321C0,2.83,2.83,0,6.321,0h75.857  C85.67,0,88.5,2.83,88.5,6.321v122.214C88.5,132.027,85.67,134.857,82.179,134.857z M44.25,132.75c4.655,0,8.429-3.774,8.429-8.429  s-3.774-8.429-8.429-8.429s-8.429,3.774-8.429,8.429S39.595,132.75,44.25,132.75z M78.881,14.75H9.619v96.929h69.262  C78.881,111.679,78.881,14.75,78.881,14.75z" style="fill: rgb(26, 207, 207);"></path>
</svg>