<svg xmlns="http://www.w3.org/2000/svg" xmlns:xlink="http://www.w3.org/1999/xlink" version="1.1" id="7280594775" x="0px" y="0px" width="100%" height="100%" viewBox="0 0 80 53.543" enable-background="new 0 0 80 53.543" xml:space="preserve" preserveAspectRatio="none" class="element svg-element">
<path fill="#08A1EF" d="M30.374,38.373c0,0.349,0.041,0.678,0.069,1.018c-6.185-0.1-11.887-1.455-16.572-3.726  c-2.551,2.315-5.937,3.741-9.658,3.741c-1.468,0-2.883-0.226-4.213-0.627c3.556-1.114,6.633-3.3,8.873-6.173  c-4.49-3.458-7.226-7.971-7.226-12.91C1.647,8.819,14.824,0,31.081,0c16.25,0,29.43,8.819,29.43,19.696  c0,0.263-0.042,0.497-0.051,0.746c-1.43-0.164-2.887-0.27-4.398-0.27C41.66,20.173,30.374,28.168,30.374,38.373z M80,53.056  c-1.035,0.319-2.123,0.487-3.246,0.487c-2.869,0-5.472-1.099-7.444-2.882c-3.723,1.807-8.291,2.882-13.248,2.882  c-12.515,0-22.658-6.793-22.658-15.17s10.144-15.172,22.658-15.172c12.518,0,22.667,6.795,22.667,15.172  c0,3.805-2.105,7.276-5.57,9.936C74.882,50.521,77.255,52.206,80,53.056z M50.137,38.373c0-1.498-1.216-2.726-2.724-2.726  c-1.505,0-2.721,1.228-2.721,2.726c0,1.496,1.216,2.719,2.721,2.719C48.921,41.092,50.137,39.869,50.137,38.373z M59.423,38.373  c0-1.498-1.218-2.726-2.728-2.726c-1.503,0-2.715,1.228-2.715,2.726c0,1.496,1.212,2.719,2.715,2.719  C58.205,41.092,59.423,39.869,59.423,38.373z M68.705,38.373c0-1.498-1.214-2.726-2.719-2.726c-1.51,0-2.728,1.228-2.728,2.726  c0,1.496,1.218,2.719,2.728,2.719C67.491,41.092,68.705,39.869,68.705,38.373z" style="fill: rgb(26, 207, 207);"></path>
</svg>