<svg xmlns="http://www.w3.org/2000/svg" xmlns:xlink="http://www.w3.org/1999/xlink" version="1.1" id="7903655980" x="0px" y="0px" width="100%" height="100%" viewBox="0 0 80 56.596" enable-background="new 0 0 80 56.596" xml:space="preserve" preserveAspectRatio="none" class="element svg-element">
<path fill="#08A1EF" d="M39.997,38.932c4.882,0,9.291,1.978,12.491,5.18L39.997,56.596L27.514,44.111  C30.705,40.909,35.117,38.932,39.997,38.932z M39.997,0C24.396,0,10.246,6.351,0,16.595l4.552,4.554  c9.085-9.082,21.622-14.707,35.445-14.707c13.83,0,26.37,5.625,35.449,14.707L80,16.595C69.748,6.351,55.604,0,39.997,0z   M9.104,25.701l4.558,4.551c6.746-6.746,16.064-10.929,26.336-10.929c10.276,0,19.593,4.183,26.346,10.929l4.549-4.551  c-7.913-7.915-18.844-12.814-30.895-12.814S17.023,17.786,9.104,25.701z M18.209,34.805l4.557,4.558  c4.418-4.412,10.511-7.147,17.231-7.147s12.823,2.735,17.24,7.147l4.548-4.558c-5.579-5.579-13.296-9.032-21.788-9.032  C31.499,25.772,23.795,29.226,18.209,34.805z" style="fill: rgb(255, 255, 255);"></path>
</svg>